solid DemoDruckerVorlage
facet normal -0.0 -0.0 1.0
  outer loop
    vertex 214.99999999999997 -19.999999999999986 0.0
    vertex 0.0 0.0 0.0
    vertex -14.99999999999998 -19.999999999999993 0.0
  endloop
endfacet
facet normal -0.0 -0.0 1.0
  outer loop
    vertex 0.0 0.0 0.0
    vertex 214.99999999999997 -19.999999999999986 0.0
    vertex 200.0 0.0 0.0
  endloop
endfacet
facet normal -0.0 -0.0 1.0
  outer loop
    vertex 200.0 0.0 0.0
    vertex 214.99999999999997 -19.999999999999986 0.0
    vertex 200.0 200.0 0.0
  endloop
endfacet
facet normal -0.0 -0.0 1.0
  outer loop
    vertex -19.999999999999993 -15.000000000000007 0.0
    vertex -19.957224306869048 215.65263096110027 0.0
    vertex -19.999999999999993 215.0 0.0
  endloop
endfacet
facet normal -0.0 -0.0 1.0
  outer loop
    vertex -19.957224306869048 215.65263096110027 0.0
    vertex -19.999999999999993 -15.000000000000007 0.0
    vertex -19.95722430686904 -15.652630961100263 0.0
  endloop
endfacet
facet normal -0.0 -0.0 1.0
  outer loop
    vertex -19.957224306869048 215.65263096110027 0.0
    vertex -19.95722430686904 -15.652630961100263 0.0
    vertex -19.829629131445337 216.29409522551265 0.0
  endloop
endfacet
facet normal -0.0 -0.0 1.0
  outer loop
    vertex -19.829629131445337 216.29409522551265 0.0
    vertex -19.95722430686904 -15.652630961100263 0.0
    vertex -19.82962913144533 -16.29409522551261 0.0
  endloop
endfacet
facet normal -0.0 -0.0 1.0
  outer loop
    vertex -19.829629131445337 216.29409522551265 0.0
    vertex -19.82962913144533 -16.29409522551261 0.0
    vertex -19.619397662556427 216.91341716182546 0.0
  endloop
endfacet
facet normal -0.0 -0.0 1.0
  outer loop
    vertex -19.619397662556427 216.91341716182546 0.0
    vertex -19.82962913144533 -16.29409522551261 0.0
    vertex -19.619397662556423 -16.913417161825453 0.0
  endloop
endfacet
facet normal -0.0 -0.0 1.0
  outer loop
    vertex -19.619397662556427 216.91341716182546 0.0
    vertex -19.619397662556423 -16.913417161825453 0.0
    vertex -19.330127018922187 217.50000000000003 0.0
  endloop
endfacet
facet normal -0.0 -0.0 1.0
  outer loop
    vertex -19.330127018922187 217.50000000000003 0.0
    vertex -19.619397662556423 -16.913417161825453 0.0
    vertex -19.33012701892218 -17.500000000000004 0.0
  endloop
endfacet
facet normal -0.0 -0.0 1.0
  outer loop
    vertex -19.330127018922187 217.50000000000003 0.0
    vertex -19.33012701892218 -17.500000000000004 0.0
    vertex -18.96676670145617 218.04380714504362 0.0
  endloop
endfacet
facet normal -0.0 -0.0 1.0
  outer loop
    vertex -18.96676670145617 218.04380714504362 0.0
    vertex -19.33012701892218 -17.500000000000004 0.0
    vertex -18.966766701456162 -18.043807145043605 0.0
  endloop
endfacet
facet normal -0.0 -0.0 1.0
  outer loop
    vertex -18.96676670145617 218.04380714504362 0.0
    vertex -18.966766701456162 -18.043807145043605 0.0
    vertex -18.535533905932734 218.53553390593277 0.0
  endloop
endfacet
facet normal -0.0 -0.0 1.0
  outer loop
    vertex -18.535533905932734 218.53553390593277 0.0
    vertex -18.966766701456162 -18.043807145043605 0.0
    vertex -18.535533905932724 -18.535533905932738 0.0
  endloop
endfacet
facet normal -0.0 -0.0 1.0
  outer loop
    vertex -18.535533905932734 218.53553390593277 0.0
    vertex -18.535533905932724 -18.535533905932738 0.0
    vertex -18.043807145043598 218.96676670145615 0.0
  endloop
endfacet
facet normal -0.0 -0.0 1.0
  outer loop
    vertex -18.043807145043598 218.96676670145615 0.0
    vertex -18.535533905932724 -18.535533905932738 0.0
    vertex -18.043807145043587 -18.966766701456173 0.0
  endloop
endfacet
facet normal -0.0 -0.0 1.0
  outer loop
    vertex -18.043807145043598 218.96676670145615 0.0
    vertex -18.043807145043587 -18.966766701456173 0.0
    vertex -17.499999999999996 219.3301270189222 0.0
  endloop
endfacet
facet normal -0.0 -0.0 1.0
  outer loop
    vertex -17.499999999999996 219.3301270189222 0.0
    vertex -18.043807145043587 -18.966766701456173 0.0
    vertex -17.499999999999982 -19.33012701892219 0.0
  endloop
endfacet
facet normal -0.0 -0.0 1.0
  outer loop
    vertex -17.499999999999996 219.3301270189222 0.0
    vertex -17.499999999999982 -19.33012701892219 0.0
    vertex -16.913417161825446 219.61939766255642 0.0
  endloop
endfacet
facet normal -0.0 -0.0 1.0
  outer loop
    vertex -16.913417161825446 219.61939766255642 0.0
    vertex -17.499999999999982 -19.33012701892219 0.0
    vertex -16.91341716182543 -19.61939766255643 0.0
  endloop
endfacet
facet normal -0.0 -0.0 1.0
  outer loop
    vertex -16.913417161825446 219.61939766255642 0.0
    vertex -16.91341716182543 -19.61939766255643 0.0
    vertex -16.2940952255126 219.82962913144533 0.0
  endloop
endfacet
facet normal -0.0 -0.0 1.0
  outer loop
    vertex -16.2940952255126 219.82962913144533 0.0
    vertex -16.91341716182543 -19.61939766255643 0.0
    vertex -16.294095225512585 -19.829629131445337 0.0
  endloop
endfacet
facet normal -0.0 -0.0 1.0
  outer loop
    vertex -16.2940952255126 219.82962913144533 0.0
    vertex -16.294095225512585 -19.829629131445337 0.0
    vertex -15.652630961100257 219.95722430686908 0.0
  endloop
endfacet
facet normal -0.0 -0.0 1.0
  outer loop
    vertex -15.652630961100257 219.95722430686908 0.0
    vertex -16.294095225512585 -19.829629131445337 0.0
    vertex -15.652630961100238 -19.957224306869048 0.0
  endloop
endfacet
facet normal -0.0 -0.0 1.0
  outer loop
    vertex -15.652630961100257 219.95722430686908 0.0
    vertex -15.652630961100238 -19.957224306869048 0.0
    vertex -15.0 220.0 0.0
  endloop
endfacet
facet normal -0.0 -0.0 1.0
  outer loop
    vertex -15.0 220.0 0.0
    vertex -15.652630961100238 -19.957224306869048 0.0
    vertex -14.99999999999998 -19.999999999999993 0.0
  endloop
endfacet
facet normal -0.0 -0.0 1.0
  outer loop
    vertex -15.0 220.0 0.0
    vertex -14.99999999999998 -19.999999999999993 0.0
    vertex 0.0 200.0 0.0
  endloop
endfacet
facet normal -0.0 -0.0 1.0
  outer loop
    vertex -15.0 220.0 0.0
    vertex 0.0 200.0 0.0
    vertex 215.0 220.0 0.0
  endloop
endfacet
facet normal -0.0 -0.0 1.0
  outer loop
    vertex 0.0 200.0 0.0
    vertex -14.99999999999998 -19.999999999999993 0.0
    vertex 0.0 0.0 0.0
  endloop
endfacet
facet normal -0.0 -0.0 1.0
  outer loop
    vertex 215.0 220.0 0.0
    vertex 0.0 200.0 0.0
    vertex 200.0 200.0 0.0
  endloop
endfacet
facet normal -0.0 -0.0 1.0
  outer loop
    vertex 215.0 220.0 0.0
    vertex 200.0 200.0 0.0
    vertex 214.99999999999997 -19.999999999999986 0.0
  endloop
endfacet
facet normal -0.0 -0.0 1.0
  outer loop
    vertex 215.0 220.0 0.0
    vertex 214.99999999999997 -19.999999999999986 0.0
    vertex 215.65263096110024 -19.957224306869037 0.0
  endloop
endfacet
facet normal -0.0 -0.0 1.0
  outer loop
    vertex 215.0 220.0 0.0
    vertex 215.65263096110024 -19.957224306869037 0.0
    vertex 215.65263096110027 219.95722430686908 0.0
  endloop
endfacet
facet normal -0.0 -0.0 1.0
  outer loop
    vertex 215.65263096110027 219.95722430686908 0.0
    vertex 215.65263096110024 -19.957224306869037 0.0
    vertex 216.29409522551254 -19.829629131445326 0.0
  endloop
endfacet
facet normal -0.0 -0.0 1.0
  outer loop
    vertex 215.65263096110027 219.95722430686908 0.0
    vertex 216.29409522551254 -19.829629131445326 0.0
    vertex 216.2940952255126 219.82962913144533 0.0
  endloop
endfacet
facet normal -0.0 -0.0 1.0
  outer loop
    vertex 216.2940952255126 219.82962913144533 0.0
    vertex 216.29409522551254 -19.829629131445326 0.0
    vertex 216.91341716182544 -19.619397662556423 0.0
  endloop
endfacet
facet normal -0.0 -0.0 1.0
  outer loop
    vertex 216.2940952255126 219.82962913144533 0.0
    vertex 216.91341716182544 -19.619397662556423 0.0
    vertex 216.91341716182546 219.61939766255642 0.0
  endloop
endfacet
facet normal -0.0 -0.0 1.0
  outer loop
    vertex 216.91341716182546 219.61939766255642 0.0
    vertex 216.91341716182544 -19.619397662556423 0.0
    vertex 217.49999999999994 -19.330127018922184 0.0
  endloop
endfacet
facet normal -0.0 -0.0 1.0
  outer loop
    vertex 216.91341716182546 219.61939766255642 0.0
    vertex 217.49999999999994 -19.330127018922184 0.0
    vertex 217.49999999999997 219.33012701892218 0.0
  endloop
endfacet
facet normal -0.0 -0.0 1.0
  outer loop
    vertex 217.49999999999997 219.33012701892218 0.0
    vertex 217.49999999999994 -19.330127018922184 0.0
    vertex 218.04380714504356 -18.96676670145617 0.0
  endloop
endfacet
facet normal -0.0 -0.0 1.0
  outer loop
    vertex 217.49999999999997 219.33012701892218 0.0
    vertex 218.04380714504356 -18.96676670145617 0.0
    vertex 218.04380714504362 218.96676670145615 0.0
  endloop
endfacet
facet normal -0.0 -0.0 1.0
  outer loop
    vertex 218.04380714504362 218.96676670145615 0.0
    vertex 218.04380714504356 -18.96676670145617 0.0
    vertex 218.5355339059327 -18.53553390593273 0.0
  endloop
endfacet
facet normal -0.0 -0.0 1.0
  outer loop
    vertex 218.04380714504362 218.96676670145615 0.0
    vertex 218.5355339059327 -18.53553390593273 0.0
    vertex 218.53553390593277 218.53553390593277 0.0
  endloop
endfacet
facet normal -0.0 -0.0 1.0
  outer loop
    vertex 218.53553390593277 218.53553390593277 0.0
    vertex 218.5355339059327 -18.53553390593273 0.0
    vertex 218.96676670145612 -18.043807145043598 0.0
  endloop
endfacet
facet normal -0.0 -0.0 1.0
  outer loop
    vertex 218.53553390593277 218.53553390593277 0.0
    vertex 218.96676670145612 -18.043807145043598 0.0
    vertex 218.96676670145615 218.04380714504362 0.0
  endloop
endfacet
facet normal -0.0 -0.0 1.0
  outer loop
    vertex 218.96676670145615 218.04380714504362 0.0
    vertex 218.96676670145612 -18.043807145043598 0.0
    vertex 219.33012701892213 -17.499999999999996 0.0
  endloop
endfacet
facet normal -0.0 -0.0 1.0
  outer loop
    vertex 218.96676670145615 218.04380714504362 0.0
    vertex 219.33012701892213 -17.499999999999996 0.0
    vertex 219.33012701892218 217.50000000000003 0.0
  endloop
endfacet
facet normal -0.0 -0.0 1.0
  outer loop
    vertex 219.33012701892218 217.50000000000003 0.0
    vertex 219.33012701892213 -17.499999999999996 0.0
    vertex 219.6193976625564 -16.91341716182545 0.0
  endloop
endfacet
facet normal -0.0 -0.0 1.0
  outer loop
    vertex 219.33012701892218 217.50000000000003 0.0
    vertex 219.6193976625564 -16.91341716182545 0.0
    vertex 219.61939766255642 216.91341716182546 0.0
  endloop
endfacet
facet normal -0.0 -0.0 1.0
  outer loop
    vertex 219.61939766255642 216.91341716182546 0.0
    vertex 219.6193976625564 -16.91341716182545 0.0
    vertex 219.8296291314453 -16.294095225512606 0.0
  endloop
endfacet
facet normal -0.0 -0.0 1.0
  outer loop
    vertex 219.61939766255642 216.91341716182546 0.0
    vertex 219.8296291314453 -16.294095225512606 0.0
    vertex 219.82962913144533 216.2940952255126 0.0
  endloop
endfacet
facet normal -0.0 -0.0 1.0
  outer loop
    vertex 219.82962913144533 216.2940952255126 0.0
    vertex 219.8296291314453 -16.294095225512606 0.0
    vertex 219.95722430686902 -15.652630961100263 0.0
  endloop
endfacet
facet normal -0.0 -0.0 1.0
  outer loop
    vertex 219.82962913144533 216.2940952255126 0.0
    vertex 219.95722430686902 -15.652630961100263 0.0
    vertex 219.95722430686908 215.65263096110027 0.0
  endloop
endfacet
facet normal -0.0 -0.0 1.0
  outer loop
    vertex 219.95722430686908 215.65263096110027 0.0
    vertex 219.95722430686902 -15.652630961100263 0.0
    vertex 219.99999999999997 -15.000000000000007 0.0
  endloop
endfacet
facet normal -0.0 -0.0 1.0
  outer loop
    vertex 219.95722430686908 215.65263096110027 0.0
    vertex 219.99999999999997 -15.000000000000007 0.0
    vertex 220.0 215.0 0.0
  endloop
endfacet
facet normal 0.06540312923014246 -0.9978589232386036 0.0
  outer loop
    vertex 215.65263096110024 -19.957224306869037 0.0
    vertex 214.99999999999997 -19.999999999999986 -59.99999999999999
    vertex 215.65263096110024 -19.957224306869037 -59.99999999999999
  endloop
endfacet
facet normal 0.06540312923014246 -0.9978589232386036 0.0
  outer loop
    vertex 214.99999999999997 -19.999999999999986 -59.99999999999999
    vertex 215.65263096110024 -19.957224306869037 0.0
    vertex 214.99999999999997 -19.999999999999986 0.0
  endloop
endfacet
facet normal 2.452144767432955e-17 -1.0 0.0
  outer loop
    vertex 214.99999999999997 -19.999999999999986 0.0
    vertex -14.99999999999998 -19.999999999999993 -59.99999999999999
    vertex 214.99999999999997 -19.999999999999986 -59.99999999999999
  endloop
endfacet
facet normal 2.452144767432955e-17 -1.0 0.0
  outer loop
    vertex -14.99999999999998 -19.999999999999993 -59.99999999999999
    vertex 214.99999999999997 -19.999999999999986 0.0
    vertex -14.99999999999998 -19.999999999999993 0.0
  endloop
endfacet
facet normal -0.06540312923013902 -0.9978589232386039 -0.0
  outer loop
    vertex -14.99999999999998 -19.999999999999993 0.0
    vertex -15.652630961100238 -19.957224306869048 -59.99999999999999
    vertex -14.99999999999998 -19.999999999999993 -59.99999999999999
  endloop
endfacet
facet normal -0.06540312923013902 -0.9978589232386039 -0.0
  outer loop
    vertex -15.652630961100238 -19.957224306869048 -59.99999999999999
    vertex -14.99999999999998 -19.999999999999993 0.0
    vertex -15.652630961100238 -19.957224306869048 0.0
  endloop
endfacet
facet normal -0.1950903220161284 -0.9807852804032304 -0.0
  outer loop
    vertex -15.652630961100238 -19.957224306869048 0.0
    vertex -16.294095225512585 -19.829629131445337 -59.99999999999999
    vertex -15.652630961100238 -19.957224306869048 -59.99999999999999
  endloop
endfacet
facet normal -0.1950903220161284 -0.9807852804032304 -0.0
  outer loop
    vertex -16.294095225512585 -19.829629131445337 -59.99999999999999
    vertex -15.652630961100238 -19.957224306869048 0.0
    vertex -16.294095225512585 -19.829629131445337 0.0
  endloop
endfacet
facet normal -0.3214394653031568 -0.9469301294951075 -0.0
  outer loop
    vertex -16.294095225512585 -19.829629131445337 0.0
    vertex -16.91341716182543 -19.61939766255643 -59.99999999999999
    vertex -16.294095225512585 -19.829629131445337 -59.99999999999999
  endloop
endfacet
facet normal -0.3214394653031568 -0.9469301294951075 -0.0
  outer loop
    vertex -16.91341716182543 -19.61939766255643 -59.99999999999999
    vertex -16.294095225512585 -19.829629131445337 0.0
    vertex -16.91341716182543 -19.61939766255643 0.0
  endloop
endfacet
facet normal -0.4422886902190001 -0.8968727415326889 -0.0
  outer loop
    vertex -16.91341716182543 -19.61939766255643 0.0
    vertex -17.499999999999982 -19.33012701892219 -59.99999999999999
    vertex -16.91341716182543 -19.61939766255643 -59.99999999999999
  endloop
endfacet
facet normal -0.4422886902190001 -0.8968727415326889 -0.0
  outer loop
    vertex -17.499999999999982 -19.33012701892219 -59.99999999999999
    vertex -16.91341716182543 -19.61939766255643 0.0
    vertex -17.499999999999982 -19.33012701892219 0.0
  endloop
endfacet
facet normal -0.5555702330196003 -0.8314696123025466 -0.0
  outer loop
    vertex -17.499999999999982 -19.33012701892219 0.0
    vertex -18.043807145043587 -18.966766701456173 -59.99999999999999
    vertex -17.499999999999982 -19.33012701892219 -59.99999999999999
  endloop
endfacet
facet normal -0.5555702330196003 -0.8314696123025466 -0.0
  outer loop
    vertex -18.043807145043587 -18.966766701456173 -59.99999999999999
    vertex -17.499999999999982 -19.33012701892219 0.0
    vertex -18.043807145043587 -18.966766701456173 0.0
  endloop
endfacet
facet normal -0.6593458151000662 -0.7518398074789798 -0.0
  outer loop
    vertex -18.043807145043587 -18.966766701456173 0.0
    vertex -18.535533905932724 -18.535533905932738 -59.99999999999999
    vertex -18.043807145043587 -18.966766701456173 -59.99999999999999
  endloop
endfacet
facet normal -0.6593458151000662 -0.7518398074789798 -0.0
  outer loop
    vertex -18.535533905932724 -18.535533905932738 -59.99999999999999
    vertex -18.043807145043587 -18.966766701456173 0.0
    vertex -18.535533905932724 -18.535533905932738 0.0
  endloop
endfacet
facet normal -0.7518398074789759 -0.6593458151000708 -0.0
  outer loop
    vertex -18.966766701456162 -18.043807145043605 0.0
    vertex -18.535533905932724 -18.535533905932738 -59.99999999999999
    vertex -18.535533905932724 -18.535533905932738 0.0
  endloop
endfacet
facet normal -0.7518398074789759 -0.6593458151000708 -0.0
  outer loop
    vertex -18.535533905932724 -18.535533905932738 -59.99999999999999
    vertex -18.966766701456162 -18.043807145043605 0.0
    vertex -18.966766701456162 -18.043807145043605 -59.99999999999999
  endloop
endfacet
facet normal -0.8314696123025433 -0.5555702330196053 -0.0
  outer loop
    vertex -19.33012701892218 -17.500000000000004 0.0
    vertex -18.966766701456162 -18.043807145043605 -59.99999999999999
    vertex -18.966766701456162 -18.043807145043605 0.0
  endloop
endfacet
facet normal -0.8314696123025433 -0.5555702330196053 -0.0
  outer loop
    vertex -18.966766701456162 -18.043807145043605 -59.99999999999999
    vertex -19.33012701892218 -17.500000000000004 0.0
    vertex -19.33012701892218 -17.500000000000004 -59.99999999999999
  endloop
endfacet
facet normal -0.8968727415326874 -0.44228869021900363 -0.0
  outer loop
    vertex -19.619397662556423 -16.913417161825453 0.0
    vertex -19.33012701892218 -17.500000000000004 -59.99999999999999
    vertex -19.33012701892218 -17.500000000000004 0.0
  endloop
endfacet
facet normal -0.8968727415326874 -0.44228869021900363 -0.0
  outer loop
    vertex -19.33012701892218 -17.500000000000004 -59.99999999999999
    vertex -19.619397662556423 -16.913417161825453 0.0
    vertex -19.619397662556423 -16.913417161825453 -59.99999999999999
  endloop
endfacet
facet normal -0.9469301294951056 -0.321439465303162 -0.0
  outer loop
    vertex -19.82962913144533 -16.29409522551261 0.0
    vertex -19.619397662556423 -16.913417161825453 -59.99999999999999
    vertex -19.619397662556423 -16.913417161825453 0.0
  endloop
endfacet
facet normal -0.9469301294951056 -0.321439465303162 -0.0
  outer loop
    vertex -19.619397662556423 -16.913417161825453 -59.99999999999999
    vertex -19.82962913144533 -16.29409522551261 0.0
    vertex -19.82962913144533 -16.29409522551261 -59.99999999999999
  endloop
endfacet
facet normal -0.9807852804032304 -0.1950903220161284 -0.0
  outer loop
    vertex -19.95722430686904 -15.652630961100263 0.0
    vertex -19.82962913144533 -16.29409522551261 -59.99999999999999
    vertex -19.82962913144533 -16.29409522551261 0.0
  endloop
endfacet
facet normal -0.9807852804032304 -0.1950903220161284 -0.0
  outer loop
    vertex -19.82962913144533 -16.29409522551261 -59.99999999999999
    vertex -19.95722430686904 -15.652630961100263 0.0
    vertex -19.95722430686904 -15.652630961100263 -59.99999999999999
  endloop
endfacet
facet normal -0.9978589232386034 -0.0654031292301476 -0.0
  outer loop
    vertex -19.999999999999993 -15.000000000000007 0.0
    vertex -19.95722430686904 -15.652630961100263 -59.99999999999999
    vertex -19.95722430686904 -15.652630961100263 0.0
  endloop
endfacet
facet normal -0.9978589232386034 -0.0654031292301476 -0.0
  outer loop
    vertex -19.95722430686904 -15.652630961100263 -59.99999999999999
    vertex -19.999999999999993 -15.000000000000007 0.0
    vertex -19.999999999999993 -15.000000000000007 -59.99999999999999
  endloop
endfacet
facet normal -1.0 -1.226072383716477e-17 -0.0
  outer loop
    vertex -19.999999999999993 215.0 0.0
    vertex -19.999999999999993 -15.000000000000007 -59.99999999999999
    vertex -19.999999999999993 -15.000000000000007 0.0
  endloop
endfacet
facet normal -1.0 -1.226072383716477e-17 -0.0
  outer loop
    vertex -19.999999999999993 -15.000000000000007 -59.99999999999999
    vertex -19.999999999999993 215.0 0.0
    vertex -19.999999999999993 215.0 -59.99999999999999
  endloop
endfacet
facet normal -0.0 1.0 0.0
  outer loop
    vertex -15.0 220.0 0.0
    vertex 215.0 220.0 -59.99999999999999
    vertex -15.0 220.0 -59.99999999999999
  endloop
endfacet
facet normal -0.0 1.0 0.0
  outer loop
    vertex 215.0 220.0 -59.99999999999999
    vertex -15.0 220.0 0.0
    vertex 215.0 220.0 0.0
  endloop
endfacet
facet normal 0.06540312923011242 0.9978589232386057 0.0
  outer loop
    vertex 215.0 220.0 0.0
    vertex 215.65263096110027 219.95722430686908 -59.99999999999999
    vertex 215.0 220.0 -59.99999999999999
  endloop
endfacet
facet normal 0.06540312923011242 0.9978589232386057 0.0
  outer loop
    vertex 215.65263096110027 219.95722430686908 -59.99999999999999
    vertex 215.0 220.0 0.0
    vertex 215.65263096110027 219.95722430686908 0.0
  endloop
endfacet
facet normal 0.1950903220161748 0.9807852804032212 0.0
  outer loop
    vertex 215.65263096110027 219.95722430686908 0.0
    vertex 216.2940952255126 219.82962913144533 -59.99999999999999
    vertex 215.65263096110027 219.95722430686908 -59.99999999999999
  endloop
endfacet
facet normal 0.1950903220161748 0.9807852804032212 0.0
  outer loop
    vertex 216.2940952255126 219.82962913144533 -59.99999999999999
    vertex 215.65263096110027 219.95722430686908 0.0
    vertex 216.2940952255126 219.82962913144533 0.0
  endloop
endfacet
facet normal 0.32143946530314876 0.94693012949511 0.0
  outer loop
    vertex 216.2940952255126 219.82962913144533 0.0
    vertex 216.91341716182546 219.61939766255642 -59.99999999999999
    vertex 216.2940952255126 219.82962913144533 -59.99999999999999
  endloop
endfacet
facet normal 0.32143946530314876 0.94693012949511 0.0
  outer loop
    vertex 216.91341716182546 219.61939766255642 -59.99999999999999
    vertex 216.2940952255126 219.82962913144533 0.0
    vertex 216.91341716182546 219.61939766255642 0.0
  endloop
endfacet
facet normal 0.4422886902190345 0.896872741532672 0.0
  outer loop
    vertex 216.91341716182546 219.61939766255642 0.0
    vertex 217.49999999999997 219.33012701892218 -59.99999999999999
    vertex 216.91341716182546 219.61939766255642 -59.99999999999999
  endloop
endfacet
facet normal 0.4422886902190345 0.896872741532672 0.0
  outer loop
    vertex 217.49999999999997 219.33012701892218 -59.99999999999999
    vertex 216.91341716182546 219.61939766255642 0.0
    vertex 217.49999999999997 219.33012701892218 0.0
  endloop
endfacet
facet normal 0.5555702330195824 0.8314696123025587 0.0
  outer loop
    vertex 217.49999999999997 219.33012701892218 0.0
    vertex 218.04380714504362 218.96676670145615 -59.99999999999999
    vertex 217.49999999999997 219.33012701892218 -59.99999999999999
  endloop
endfacet
facet normal 0.5555702330195824 0.8314696123025587 0.0
  outer loop
    vertex 218.04380714504362 218.96676670145615 -59.99999999999999
    vertex 217.49999999999997 219.33012701892218 0.0
    vertex 218.04380714504362 218.96676670145615 0.0
  endloop
endfacet
facet normal 0.659345815100033 0.751839807479009 0.0
  outer loop
    vertex 218.04380714504362 218.96676670145615 0.0
    vertex 218.53553390593277 218.53553390593277 -59.99999999999999
    vertex 218.04380714504362 218.96676670145615 -59.99999999999999
  endloop
endfacet
facet normal 0.659345815100033 0.751839807479009 0.0
  outer loop
    vertex 218.53553390593277 218.53553390593277 -59.99999999999999
    vertex 218.04380714504362 218.96676670145615 0.0
    vertex 218.53553390593277 218.53553390593277 0.0
  endloop
endfacet
facet normal 0.751839807479009 0.659345815100033 0.0
  outer loop
    vertex 218.53553390593277 218.53553390593277 -59.99999999999999
    vertex 218.96676670145615 218.04380714504362 0.0
    vertex 218.96676670145615 218.04380714504362 -59.99999999999999
  endloop
endfacet
facet normal 0.751839807479009 0.659345815100033 0.0
  outer loop
    vertex 218.96676670145615 218.04380714504362 0.0
    vertex 218.53553390593277 218.53553390593277 -59.99999999999999
    vertex 218.53553390593277 218.53553390593277 0.0
  endloop
endfacet
facet normal 0.8314696123025372 0.5555702330196142 0.0
  outer loop
    vertex 218.96676670145615 218.04380714504362 -59.99999999999999
    vertex 219.33012701892218 217.50000000000003 0.0
    vertex 219.33012701892218 217.50000000000003 -59.99999999999999
  endloop
endfacet
facet normal 0.8314696123025372 0.5555702330196142 0.0
  outer loop
    vertex 219.33012701892218 217.50000000000003 0.0
    vertex 218.96676670145615 218.04380714504362 -59.99999999999999
    vertex 218.96676670145615 218.04380714504362 0.0
  endloop
endfacet
facet normal 0.8968727415326856 0.44228869021900713 0.0
  outer loop
    vertex 219.33012701892218 217.50000000000003 -59.99999999999999
    vertex 219.61939766255642 216.91341716182546 0.0
    vertex 219.61939766255642 216.91341716182546 -59.99999999999999
  endloop
endfacet
facet normal 0.8968727415326856 0.44228869021900713 0.0
  outer loop
    vertex 219.61939766255642 216.91341716182546 0.0
    vertex 219.33012701892218 217.50000000000003 -59.99999999999999
    vertex 219.33012701892218 217.50000000000003 0.0
  endloop
endfacet
facet normal 0.94693012949511 0.32143946530314876 0.0
  outer loop
    vertex 219.61939766255642 216.91341716182546 -59.99999999999999
    vertex 219.82962913144533 216.2940952255126 0.0
    vertex 219.82962913144533 216.2940952255126 -59.99999999999999
  endloop
endfacet
facet normal 0.94693012949511 0.32143946530314876 0.0
  outer loop
    vertex 219.82962913144533 216.2940952255126 0.0
    vertex 219.61939766255642 216.91341716182546 -59.99999999999999
    vertex 219.61939766255642 216.91341716182546 0.0
  endloop
endfacet
facet normal 0.9807852804032212 0.1950903220161748 0.0
  outer loop
    vertex 219.82962913144533 216.2940952255126 -59.99999999999999
    vertex 219.95722430686908 215.65263096110027 0.0
    vertex 219.95722430686908 215.65263096110027 -59.99999999999999
  endloop
endfacet
facet normal 0.9807852804032212 0.1950903220161748 0.0
  outer loop
    vertex 219.95722430686908 215.65263096110027 0.0
    vertex 219.82962913144533 216.2940952255126 -59.99999999999999
    vertex 219.82962913144533 216.2940952255126 0.0
  endloop
endfacet
facet normal 0.9978589232386057 0.06540312923011242 0.0
  outer loop
    vertex 219.95722430686908 215.65263096110027 -59.99999999999999
    vertex 220.0 215.0 0.0
    vertex 220.0 215.0 -59.99999999999999
  endloop
endfacet
facet normal 0.9978589232386057 0.06540312923011242 0.0
  outer loop
    vertex 220.0 215.0 0.0
    vertex 219.95722430686908 215.65263096110027 -59.99999999999999
    vertex 219.95722430686908 215.65263096110027 0.0
  endloop
endfacet
facet normal 1.0 -1.9617158139463632e-16 0.0
  outer loop
    vertex 220.0 215.0 -59.99999999999999
    vertex 219.99999999999997 -15.000000000000007 0.0
    vertex 219.99999999999997 -15.000000000000007 -59.99999999999999
  endloop
endfacet
facet normal 1.0 -1.9617158139463632e-16 0.0
  outer loop
    vertex 219.99999999999997 -15.000000000000007 0.0
    vertex 220.0 215.0 -59.99999999999999
    vertex 220.0 215.0 0.0
  endloop
endfacet
facet normal 0.9978589232386055 -0.06540312923011325 0.0
  outer loop
    vertex 219.99999999999997 -15.000000000000007 -59.99999999999999
    vertex 219.95722430686902 -15.652630961100263 0.0
    vertex 219.95722430686902 -15.652630961100263 -59.99999999999999
  endloop
endfacet
facet normal 0.9978589232386055 -0.06540312923011325 0.0
  outer loop
    vertex 219.95722430686902 -15.652630961100263 0.0
    vertex 219.99999999999997 -15.000000000000007 -59.99999999999999
    vertex 219.99999999999997 -15.000000000000007 0.0
  endloop
endfacet
facet normal 0.9807852804032229 -0.19509032201616655 0.0
  outer loop
    vertex 219.95722430686902 -15.652630961100263 -59.99999999999999
    vertex 219.8296291314453 -16.294095225512606 0.0
    vertex 219.8296291314453 -16.294095225512606 -59.99999999999999
  endloop
endfacet
facet normal 0.9807852804032229 -0.19509032201616655 0.0
  outer loop
    vertex 219.8296291314453 -16.294095225512606 0.0
    vertex 219.95722430686902 -15.652630961100263 -59.99999999999999
    vertex 219.95722430686902 -15.652630961100263 0.0
  endloop
endfacet
facet normal 0.9469301294951044 -0.32143946530316586 0.0
  outer loop
    vertex 219.8296291314453 -16.294095225512606 -59.99999999999999
    vertex 219.6193976625564 -16.91341716182545 0.0
    vertex 219.6193976625564 -16.91341716182545 -59.99999999999999
  endloop
endfacet
facet normal 0.9469301294951044 -0.32143946530316586 0.0
  outer loop
    vertex 219.6193976625564 -16.91341716182545 0.0
    vertex 219.8296291314453 -16.294095225512606 -59.99999999999999
    vertex 219.8296291314453 -16.294095225512606 0.0
  endloop
endfacet
facet normal 0.8968727415326821 -0.4422886902190139 0.0
  outer loop
    vertex 219.6193976625564 -16.91341716182545 -59.99999999999999
    vertex 219.33012701892213 -17.499999999999996 0.0
    vertex 219.33012701892213 -17.499999999999996 -59.99999999999999
  endloop
endfacet
facet normal 0.8968727415326821 -0.4422886902190139 0.0
  outer loop
    vertex 219.33012701892213 -17.499999999999996 0.0
    vertex 219.6193976625564 -16.91341716182545 -59.99999999999999
    vertex 219.6193976625564 -16.91341716182545 0.0
  endloop
endfacet
facet normal 0.8314696123025452 -0.5555702330196022 0.0
  outer loop
    vertex 219.33012701892213 -17.499999999999996 -59.99999999999999
    vertex 218.96676670145612 -18.043807145043598 0.0
    vertex 218.96676670145612 -18.043807145043598 -59.99999999999999
  endloop
endfacet
facet normal 0.8314696123025452 -0.5555702330196022 0.0
  outer loop
    vertex 218.96676670145612 -18.043807145043598 0.0
    vertex 219.33012701892213 -17.499999999999996 -59.99999999999999
    vertex 219.33012701892213 -17.499999999999996 0.0
  endloop
endfacet
facet normal 0.7518398074790015 -0.6593458151000415 0.0
  outer loop
    vertex 218.96676670145612 -18.043807145043598 -59.99999999999999
    vertex 218.5355339059327 -18.53553390593273 0.0
    vertex 218.5355339059327 -18.53553390593273 -59.99999999999999
  endloop
endfacet
facet normal 0.7518398074790015 -0.6593458151000415 0.0
  outer loop
    vertex 218.5355339059327 -18.53553390593273 0.0
    vertex 218.96676670145612 -18.043807145043598 -59.99999999999999
    vertex 218.96676670145612 -18.043807145043598 0.0
  endloop
endfacet
facet normal 0.6593458151000622 -0.7518398074789833 0.0
  outer loop
    vertex 218.5355339059327 -18.53553390593273 0.0
    vertex 218.04380714504356 -18.96676670145617 -59.99999999999999
    vertex 218.5355339059327 -18.53553390593273 -59.99999999999999
  endloop
endfacet
facet normal 0.6593458151000622 -0.7518398074789833 0.0
  outer loop
    vertex 218.04380714504356 -18.96676670145617 -59.99999999999999
    vertex 218.5355339059327 -18.53553390593273 0.0
    vertex 218.04380714504356 -18.96676670145617 0.0
  endloop
endfacet
facet normal 0.5555702330195794 -0.8314696123025607 0.0
  outer loop
    vertex 218.04380714504356 -18.96676670145617 0.0
    vertex 217.49999999999994 -19.330127018922184 -59.99999999999999
    vertex 218.04380714504356 -18.96676670145617 -59.99999999999999
  endloop
endfacet
facet normal 0.5555702330195794 -0.8314696123025607 0.0
  outer loop
    vertex 217.49999999999994 -19.330127018922184 -59.99999999999999
    vertex 218.04380714504356 -18.96676670145617 0.0
    vertex 217.49999999999994 -19.330127018922184 0.0
  endloop
endfacet
facet normal 0.44228869021902406 -0.8968727415326772 0.0
  outer loop
    vertex 217.49999999999994 -19.330127018922184 0.0
    vertex 216.91341716182544 -19.619397662556423 -59.99999999999999
    vertex 217.49999999999994 -19.330127018922184 -59.99999999999999
  endloop
endfacet
facet normal 0.44228869021902406 -0.8968727415326772 0.0
  outer loop
    vertex 216.91341716182544 -19.619397662556423 -59.99999999999999
    vertex 217.49999999999994 -19.330127018922184 0.0
    vertex 216.91341716182544 -19.619397662556423 0.0
  endloop
endfacet
facet normal 0.32143946530314105 -0.9469301294951128 0.0
  outer loop
    vertex 216.91341716182544 -19.619397662556423 0.0
    vertex 216.29409522551254 -19.829629131445326 -59.99999999999999
    vertex 216.91341716182544 -19.619397662556423 -59.99999999999999
  endloop
endfacet
facet normal 0.32143946530314105 -0.9469301294951128 0.0
  outer loop
    vertex 216.29409522551254 -19.829629131445326 -59.99999999999999
    vertex 216.91341716182544 -19.619397662556423 0.0
    vertex 216.29409522551254 -19.829629131445326 0.0
  endloop
endfacet
facet normal 0.1950903220161375 -0.9807852804032288 0.0
  outer loop
    vertex 216.29409522551254 -19.829629131445326 0.0
    vertex 215.65263096110024 -19.957224306869037 -59.99999999999999
    vertex 216.29409522551254 -19.829629131445326 -59.99999999999999
  endloop
endfacet
facet normal 0.1950903220161375 -0.9807852804032288 0.0
  outer loop
    vertex 215.65263096110024 -19.957224306869037 -59.99999999999999
    vertex 216.29409522551254 -19.829629131445326 0.0
    vertex 215.65263096110024 -19.957224306869037 0.0
  endloop
endfacet
facet normal -0.0 1.0 0.0
  outer loop
    vertex 0.0 0.0 0.0
    vertex 200.0 0.0 -59.99999999999999
    vertex 0.0 0.0 -59.99999999999999
  endloop
endfacet
facet normal -0.0 1.0 0.0
  outer loop
    vertex 200.0 0.0 -59.99999999999999
    vertex 0.0 0.0 0.0
    vertex 200.0 0.0 0.0
  endloop
endfacet
facet normal -1.0 0.0 0.0
  outer loop
    vertex 200.0 200.0 0.0
    vertex 200.0 0.0 -59.99999999999999
    vertex 200.0 0.0 0.0
  endloop
endfacet
facet normal -1.0 0.0 0.0
  outer loop
    vertex 200.0 0.0 -59.99999999999999
    vertex 200.0 200.0 0.0
    vertex 200.0 200.0 -59.99999999999999
  endloop
endfacet
facet normal -0.0 -1.0 -0.0
  outer loop
    vertex 200.0 200.0 0.0
    vertex 0.0 200.0 -59.99999999999999
    vertex 200.0 200.0 -59.99999999999999
  endloop
endfacet
facet normal -0.0 -1.0 -0.0
  outer loop
    vertex 0.0 200.0 -59.99999999999999
    vertex 200.0 200.0 0.0
    vertex 0.0 200.0 0.0
  endloop
endfacet
facet normal 1.0 0.0 0.0
  outer loop
    vertex 0.0 200.0 -59.99999999999999
    vertex 0.0 0.0 0.0
    vertex 0.0 0.0 -59.99999999999999
  endloop
endfacet
facet normal 1.0 0.0 0.0
  outer loop
    vertex 0.0 0.0 0.0
    vertex 0.0 200.0 -59.99999999999999
    vertex 0.0 200.0 0.0
  endloop
endfacet
facet normal -0.9978589232386036 0.06540312923014246 0.0
  outer loop
    vertex -19.957224306869048 215.65263096110027 0.0
    vertex -19.999999999999993 215.0 -59.99999999999999
    vertex -19.999999999999993 215.0 0.0
  endloop
endfacet
facet normal -0.9978589232386036 0.06540312923014246 0.0
  outer loop
    vertex -19.999999999999993 215.0 -59.99999999999999
    vertex -19.957224306869048 215.65263096110027 0.0
    vertex -19.957224306869048 215.65263096110027 -59.99999999999999
  endloop
endfacet
facet normal 0.0 0.0 -1.0
  outer loop
    vertex -19.957224306869048 215.65263096110027 -59.99999999999999
    vertex -19.999999999999993 -15.000000000000007 -59.99999999999999
    vertex -19.999999999999993 215.0 -59.99999999999999
  endloop
endfacet
facet normal 0.0 0.0 -1.0
  outer loop
    vertex -19.999999999999993 -15.000000000000007 -59.99999999999999
    vertex -19.957224306869048 215.65263096110027 -59.99999999999999
    vertex -19.95722430686904 -15.652630961100263 -59.99999999999999
  endloop
endfacet
facet normal 0.0 0.0 -1.0
  outer loop
    vertex -19.95722430686904 -15.652630961100263 -59.99999999999999
    vertex -19.957224306869048 215.65263096110027 -59.99999999999999
    vertex -19.829629131445337 216.29409522551265 -59.99999999999999
  endloop
endfacet
facet normal 0.0 0.0 -1.0
  outer loop
    vertex -19.95722430686904 -15.652630961100263 -59.99999999999999
    vertex -19.829629131445337 216.29409522551265 -59.99999999999999
    vertex -19.82962913144533 -16.29409522551261 -59.99999999999999
  endloop
endfacet
facet normal 0.0 0.0 -1.0
  outer loop
    vertex -19.82962913144533 -16.29409522551261 -59.99999999999999
    vertex -19.829629131445337 216.29409522551265 -59.99999999999999
    vertex -19.619397662556427 216.91341716182546 -59.99999999999999
  endloop
endfacet
facet normal 0.0 0.0 -1.0
  outer loop
    vertex -19.82962913144533 -16.29409522551261 -59.99999999999999
    vertex -19.619397662556427 216.91341716182546 -59.99999999999999
    vertex -19.619397662556423 -16.913417161825453 -59.99999999999999
  endloop
endfacet
facet normal 0.0 0.0 -1.0
  outer loop
    vertex -19.619397662556423 -16.913417161825453 -59.99999999999999
    vertex -19.619397662556427 216.91341716182546 -59.99999999999999
    vertex -19.330127018922187 217.50000000000003 -59.99999999999999
  endloop
endfacet
facet normal 0.0 0.0 -1.0
  outer loop
    vertex -19.619397662556423 -16.913417161825453 -59.99999999999999
    vertex -19.330127018922187 217.50000000000003 -59.99999999999999
    vertex -19.33012701892218 -17.500000000000004 -59.99999999999999
  endloop
endfacet
facet normal 0.0 0.0 -1.0
  outer loop
    vertex -19.33012701892218 -17.500000000000004 -59.99999999999999
    vertex -19.330127018922187 217.50000000000003 -59.99999999999999
    vertex -18.96676670145617 218.04380714504362 -59.99999999999999
  endloop
endfacet
facet normal 0.0 0.0 -1.0
  outer loop
    vertex -19.33012701892218 -17.500000000000004 -59.99999999999999
    vertex -18.96676670145617 218.04380714504362 -59.99999999999999
    vertex -18.966766701456162 -18.043807145043605 -59.99999999999999
  endloop
endfacet
facet normal 0.0 0.0 -1.0
  outer loop
    vertex -18.966766701456162 -18.043807145043605 -59.99999999999999
    vertex -18.96676670145617 218.04380714504362 -59.99999999999999
    vertex -18.535533905932734 218.53553390593277 -59.99999999999999
  endloop
endfacet
facet normal 0.0 0.0 -1.0
  outer loop
    vertex -18.966766701456162 -18.043807145043605 -59.99999999999999
    vertex -18.535533905932734 218.53553390593277 -59.99999999999999
    vertex -18.535533905932724 -18.535533905932738 -59.99999999999999
  endloop
endfacet
facet normal 0.0 0.0 -1.0
  outer loop
    vertex -18.535533905932724 -18.535533905932738 -59.99999999999999
    vertex -18.535533905932734 218.53553390593277 -59.99999999999999
    vertex -18.043807145043598 218.96676670145615 -59.99999999999999
  endloop
endfacet
facet normal 0.0 0.0 -1.0
  outer loop
    vertex -18.535533905932724 -18.535533905932738 -59.99999999999999
    vertex -18.043807145043598 218.96676670145615 -59.99999999999999
    vertex -18.043807145043587 -18.966766701456173 -59.99999999999999
  endloop
endfacet
facet normal 0.0 0.0 -1.0
  outer loop
    vertex -18.043807145043587 -18.966766701456173 -59.99999999999999
    vertex -18.043807145043598 218.96676670145615 -59.99999999999999
    vertex -17.499999999999996 219.3301270189222 -59.99999999999999
  endloop
endfacet
facet normal 0.0 0.0 -1.0
  outer loop
    vertex -18.043807145043587 -18.966766701456173 -59.99999999999999
    vertex -17.499999999999996 219.3301270189222 -59.99999999999999
    vertex -17.499999999999982 -19.33012701892219 -59.99999999999999
  endloop
endfacet
facet normal 0.0 0.0 -1.0
  outer loop
    vertex -17.499999999999982 -19.33012701892219 -59.99999999999999
    vertex -17.499999999999996 219.3301270189222 -59.99999999999999
    vertex -16.913417161825446 219.61939766255642 -59.99999999999999
  endloop
endfacet
facet normal 0.0 0.0 -1.0
  outer loop
    vertex -17.499999999999982 -19.33012701892219 -59.99999999999999
    vertex -16.913417161825446 219.61939766255642 -59.99999999999999
    vertex -16.91341716182543 -19.61939766255643 -59.99999999999999
  endloop
endfacet
facet normal 0.0 0.0 -1.0
  outer loop
    vertex -16.91341716182543 -19.61939766255643 -59.99999999999999
    vertex -16.913417161825446 219.61939766255642 -59.99999999999999
    vertex -16.2940952255126 219.82962913144533 -59.99999999999999
  endloop
endfacet
facet normal 0.0 0.0 -1.0
  outer loop
    vertex -16.91341716182543 -19.61939766255643 -59.99999999999999
    vertex -16.2940952255126 219.82962913144533 -59.99999999999999
    vertex -16.294095225512585 -19.829629131445337 -59.99999999999999
  endloop
endfacet
facet normal 0.0 0.0 -1.0
  outer loop
    vertex -16.294095225512585 -19.829629131445337 -59.99999999999999
    vertex -16.2940952255126 219.82962913144533 -59.99999999999999
    vertex -15.652630961100257 219.95722430686908 -59.99999999999999
  endloop
endfacet
facet normal 0.0 0.0 -1.0
  outer loop
    vertex -16.294095225512585 -19.829629131445337 -59.99999999999999
    vertex -15.652630961100257 219.95722430686908 -59.99999999999999
    vertex -15.652630961100238 -19.957224306869048 -59.99999999999999
  endloop
endfacet
facet normal 0.0 0.0 -1.0
  outer loop
    vertex -15.652630961100238 -19.957224306869048 -59.99999999999999
    vertex -15.652630961100257 219.95722430686908 -59.99999999999999
    vertex -15.0 220.0 -59.99999999999999
  endloop
endfacet
facet normal 0.0 0.0 -1.0
  outer loop
    vertex -15.652630961100238 -19.957224306869048 -59.99999999999999
    vertex -15.0 220.0 -59.99999999999999
    vertex -14.99999999999998 -19.999999999999993 -59.99999999999999
  endloop
endfacet
facet normal 0.0 0.0 -1.0
  outer loop
    vertex -14.99999999999998 -19.999999999999993 -59.99999999999999
    vertex -15.0 220.0 -59.99999999999999
    vertex 0.0 200.0 -59.99999999999999
  endloop
endfacet
facet normal 0.0 0.0 -1.0
  outer loop
    vertex 0.0 200.0 -59.99999999999999
    vertex -15.0 220.0 -59.99999999999999
    vertex 215.0 220.0 -59.99999999999999
  endloop
endfacet
facet normal 0.0 0.0 -1.0
  outer loop
    vertex 0.0 200.0 -59.99999999999999
    vertex 215.0 220.0 -59.99999999999999
    vertex 200.0 200.0 -59.99999999999999
  endloop
endfacet
facet normal 0.0 0.0 -1.0
  outer loop
    vertex 200.0 200.0 -59.99999999999999
    vertex 215.0 220.0 -59.99999999999999
    vertex 200.0 0.0 -59.99999999999999
  endloop
endfacet
facet normal 0.0 0.0 -1.0
  outer loop
    vertex 200.0 0.0 -59.99999999999999
    vertex 215.0 220.0 -59.99999999999999
    vertex 214.99999999999997 -19.999999999999986 -59.99999999999999
  endloop
endfacet
facet normal 0.0 0.0 -1.0
  outer loop
    vertex 214.99999999999997 -19.999999999999986 -59.99999999999999
    vertex 215.0 220.0 -59.99999999999999
    vertex 215.65263096110024 -19.957224306869037 -59.99999999999999
  endloop
endfacet
facet normal 0.0 0.0 -1.0
  outer loop
    vertex 215.65263096110024 -19.957224306869037 -59.99999999999999
    vertex 215.0 220.0 -59.99999999999999
    vertex 215.65263096110027 219.95722430686908 -59.99999999999999
  endloop
endfacet
facet normal 0.0 0.0 -1.0
  outer loop
    vertex 215.65263096110024 -19.957224306869037 -59.99999999999999
    vertex 215.65263096110027 219.95722430686908 -59.99999999999999
    vertex 216.29409522551254 -19.829629131445326 -59.99999999999999
  endloop
endfacet
facet normal 0.0 0.0 -1.0
  outer loop
    vertex 216.29409522551254 -19.829629131445326 -59.99999999999999
    vertex 215.65263096110027 219.95722430686908 -59.99999999999999
    vertex 216.2940952255126 219.82962913144533 -59.99999999999999
  endloop
endfacet
facet normal 0.0 0.0 -1.0
  outer loop
    vertex 216.29409522551254 -19.829629131445326 -59.99999999999999
    vertex 216.2940952255126 219.82962913144533 -59.99999999999999
    vertex 216.91341716182544 -19.619397662556423 -59.99999999999999
  endloop
endfacet
facet normal 0.0 0.0 -1.0
  outer loop
    vertex 216.91341716182544 -19.619397662556423 -59.99999999999999
    vertex 216.2940952255126 219.82962913144533 -59.99999999999999
    vertex 216.91341716182546 219.61939766255642 -59.99999999999999
  endloop
endfacet
facet normal 0.0 0.0 -1.0
  outer loop
    vertex 216.91341716182544 -19.619397662556423 -59.99999999999999
    vertex 216.91341716182546 219.61939766255642 -59.99999999999999
    vertex 217.49999999999994 -19.330127018922184 -59.99999999999999
  endloop
endfacet
facet normal 0.0 0.0 -1.0
  outer loop
    vertex 217.49999999999994 -19.330127018922184 -59.99999999999999
    vertex 216.91341716182546 219.61939766255642 -59.99999999999999
    vertex 217.49999999999997 219.33012701892218 -59.99999999999999
  endloop
endfacet
facet normal 0.0 0.0 -1.0
  outer loop
    vertex 217.49999999999994 -19.330127018922184 -59.99999999999999
    vertex 217.49999999999997 219.33012701892218 -59.99999999999999
    vertex 218.04380714504356 -18.96676670145617 -59.99999999999999
  endloop
endfacet
facet normal 0.0 0.0 -1.0
  outer loop
    vertex 218.04380714504356 -18.96676670145617 -59.99999999999999
    vertex 217.49999999999997 219.33012701892218 -59.99999999999999
    vertex 218.04380714504362 218.96676670145615 -59.99999999999999
  endloop
endfacet
facet normal 0.0 0.0 -1.0
  outer loop
    vertex 218.04380714504356 -18.96676670145617 -59.99999999999999
    vertex 218.04380714504362 218.96676670145615 -59.99999999999999
    vertex 218.5355339059327 -18.53553390593273 -59.99999999999999
  endloop
endfacet
facet normal 0.0 0.0 -1.0
  outer loop
    vertex 218.5355339059327 -18.53553390593273 -59.99999999999999
    vertex 218.04380714504362 218.96676670145615 -59.99999999999999
    vertex 218.53553390593277 218.53553390593277 -59.99999999999999
  endloop
endfacet
facet normal 0.0 0.0 -1.0
  outer loop
    vertex 218.5355339059327 -18.53553390593273 -59.99999999999999
    vertex 218.53553390593277 218.53553390593277 -59.99999999999999
    vertex 218.96676670145612 -18.043807145043598 -59.99999999999999
  endloop
endfacet
facet normal 0.0 0.0 -1.0
  outer loop
    vertex 218.96676670145612 -18.043807145043598 -59.99999999999999
    vertex 218.53553390593277 218.53553390593277 -59.99999999999999
    vertex 218.96676670145615 218.04380714504362 -59.99999999999999
  endloop
endfacet
facet normal 0.0 0.0 -1.0
  outer loop
    vertex 218.96676670145612 -18.043807145043598 -59.99999999999999
    vertex 218.96676670145615 218.04380714504362 -59.99999999999999
    vertex 219.33012701892213 -17.499999999999996 -59.99999999999999
  endloop
endfacet
facet normal 0.0 0.0 -1.0
  outer loop
    vertex 219.33012701892213 -17.499999999999996 -59.99999999999999
    vertex 218.96676670145615 218.04380714504362 -59.99999999999999
    vertex 219.33012701892218 217.50000000000003 -59.99999999999999
  endloop
endfacet
facet normal 0.0 0.0 -1.0
  outer loop
    vertex 219.33012701892213 -17.499999999999996 -59.99999999999999
    vertex 219.33012701892218 217.50000000000003 -59.99999999999999
    vertex 219.6193976625564 -16.91341716182545 -59.99999999999999
  endloop
endfacet
facet normal 0.0 0.0 -1.0
  outer loop
    vertex 219.6193976625564 -16.91341716182545 -59.99999999999999
    vertex 219.33012701892218 217.50000000000003 -59.99999999999999
    vertex 219.61939766255642 216.91341716182546 -59.99999999999999
  endloop
endfacet
facet normal 0.0 0.0 -1.0
  outer loop
    vertex 219.6193976625564 -16.91341716182545 -59.99999999999999
    vertex 219.61939766255642 216.91341716182546 -59.99999999999999
    vertex 219.8296291314453 -16.294095225512606 -59.99999999999999
  endloop
endfacet
facet normal 0.0 0.0 -1.0
  outer loop
    vertex 219.8296291314453 -16.294095225512606 -59.99999999999999
    vertex 219.61939766255642 216.91341716182546 -59.99999999999999
    vertex 219.82962913144533 216.2940952255126 -59.99999999999999
  endloop
endfacet
facet normal 0.0 0.0 -1.0
  outer loop
    vertex 219.8296291314453 -16.294095225512606 -59.99999999999999
    vertex 219.82962913144533 216.2940952255126 -59.99999999999999
    vertex 219.95722430686902 -15.652630961100263 -59.99999999999999
  endloop
endfacet
facet normal 0.0 0.0 -1.0
  outer loop
    vertex 219.95722430686902 -15.652630961100263 -59.99999999999999
    vertex 219.82962913144533 216.2940952255126 -59.99999999999999
    vertex 219.95722430686908 215.65263096110027 -59.99999999999999
  endloop
endfacet
facet normal 0.0 0.0 -1.0
  outer loop
    vertex 219.95722430686902 -15.652630961100263 -59.99999999999999
    vertex 219.95722430686908 215.65263096110027 -59.99999999999999
    vertex 219.99999999999997 -15.000000000000007 -59.99999999999999
  endloop
endfacet
facet normal 0.0 0.0 -1.0
  outer loop
    vertex 219.99999999999997 -15.000000000000007 -59.99999999999999
    vertex 219.95722430686908 215.65263096110027 -59.99999999999999
    vertex 220.0 215.0 -59.99999999999999
  endloop
endfacet
facet normal 0.0 0.0 -1.0
  outer loop
    vertex -14.99999999999998 -19.999999999999993 -59.99999999999999
    vertex 0.0 0.0 -59.99999999999999
    vertex 214.99999999999997 -19.999999999999986 -59.99999999999999
  endloop
endfacet
facet normal 0.0 0.0 -1.0
  outer loop
    vertex 0.0 0.0 -59.99999999999999
    vertex -14.99999999999998 -19.999999999999993 -59.99999999999999
    vertex 0.0 200.0 -59.99999999999999
  endloop
endfacet
facet normal 0.0 0.0 -1.0
  outer loop
    vertex 214.99999999999997 -19.999999999999986 -59.99999999999999
    vertex 0.0 0.0 -59.99999999999999
    vertex 200.0 0.0 -59.99999999999999
  endloop
endfacet
facet normal -0.9807852804032313 0.19509032201612428 0.0
  outer loop
    vertex -19.829629131445337 216.29409522551265 0.0
    vertex -19.957224306869048 215.65263096110027 -59.99999999999999
    vertex -19.957224306869048 215.65263096110027 0.0
  endloop
endfacet
facet normal -0.9807852804032313 0.19509032201612428 0.0
  outer loop
    vertex -19.957224306869048 215.65263096110027 -59.99999999999999
    vertex -19.829629131445337 216.29409522551265 0.0
    vertex -19.829629131445337 216.29409522551265 -59.99999999999999
  endloop
endfacet
facet normal -0.8314696123025352 0.5555702330196172 0.0
  outer loop
    vertex -18.96676670145617 218.04380714504362 0.0
    vertex -19.330127018922187 217.50000000000003 -59.99999999999999
    vertex -19.330127018922187 217.50000000000003 0.0
  endloop
endfacet
facet normal -0.8314696123025352 0.5555702330196172 0.0
  outer loop
    vertex -19.330127018922187 217.50000000000003 -59.99999999999999
    vertex -18.96676670145617 218.04380714504362 0.0
    vertex -18.96676670145617 218.04380714504362 -59.99999999999999
  endloop
endfacet
facet normal -0.7518398074789854 0.6593458151000599 0.0
  outer loop
    vertex -18.535533905932734 218.53553390593277 0.0
    vertex -18.96676670145617 218.04380714504362 -59.99999999999999
    vertex -18.96676670145617 218.04380714504362 0.0
  endloop
endfacet
facet normal -0.7518398074789854 0.6593458151000599 0.0
  outer loop
    vertex -18.96676670145617 218.04380714504362 -59.99999999999999
    vertex -18.535533905932734 218.53553390593277 0.0
    vertex -18.535533905932734 218.53553390593277 -59.99999999999999
  endloop
endfacet
facet normal -0.6593458151000394 0.7518398074790033 0.0
  outer loop
    vertex -18.535533905932734 218.53553390593277 0.0
    vertex -18.043807145043598 218.96676670145615 -59.99999999999999
    vertex -18.535533905932734 218.53553390593277 -59.99999999999999
  endloop
endfacet
facet normal -0.6593458151000394 0.7518398074790033 0.0
  outer loop
    vertex -18.043807145043598 218.96676670145615 -59.99999999999999
    vertex -18.535533905932734 218.53553390593277 0.0
    vertex -18.043807145043598 218.96676670145615 0.0
  endloop
endfacet
facet normal -0.4422886902189567 0.8968727415327103 0.0
  outer loop
    vertex -17.499999999999996 219.3301270189222 0.0
    vertex -16.913417161825446 219.61939766255642 -59.99999999999999
    vertex -17.499999999999996 219.3301270189222 -59.99999999999999
  endloop
endfacet
facet normal -0.4422886902189567 0.8968727415327103 0.0
  outer loop
    vertex -16.913417161825446 219.61939766255642 -59.99999999999999
    vertex -17.499999999999996 219.3301270189222 0.0
    vertex -16.913417161825446 219.61939766255642 0.0
  endloop
endfacet
facet normal -0.19509032201616655 0.9807852804032229 0.0
  outer loop
    vertex -16.2940952255126 219.82962913144533 0.0
    vertex -15.652630961100257 219.95722430686908 -59.99999999999999
    vertex -16.2940952255126 219.82962913144533 -59.99999999999999
  endloop
endfacet
facet normal -0.19509032201616655 0.9807852804032229 0.0
  outer loop
    vertex -15.652630961100257 219.95722430686908 -59.99999999999999
    vertex -16.2940952255126 219.82962913144533 0.0
    vertex -15.652630961100257 219.95722430686908 0.0
  endloop
endfacet
facet normal -0.06540312923011325 0.9978589232386055 0.0
  outer loop
    vertex -15.652630961100257 219.95722430686908 0.0
    vertex -15.0 220.0 -59.99999999999999
    vertex -15.652630961100257 219.95722430686908 -59.99999999999999
  endloop
endfacet
facet normal -0.06540312923011325 0.9978589232386055 0.0
  outer loop
    vertex -15.0 220.0 -59.99999999999999
    vertex -15.652630961100257 219.95722430686908 0.0
    vertex -15.0 220.0 0.0
  endloop
endfacet
facet normal -0.5555702330196499 0.8314696123025134 0.0
  outer loop
    vertex -18.043807145043598 218.96676670145615 0.0
    vertex -17.499999999999996 219.3301270189222 -59.99999999999999
    vertex -18.043807145043598 218.96676670145615 -59.99999999999999
  endloop
endfacet
facet normal -0.5555702330196499 0.8314696123025134 0.0
  outer loop
    vertex -17.499999999999996 219.3301270189222 -59.99999999999999
    vertex -18.043807145043598 218.96676670145615 0.0
    vertex -17.499999999999996 219.3301270189222 0.0
  endloop
endfacet
facet normal -0.32143946530316453 0.9469301294951047 0.0
  outer loop
    vertex -16.913417161825446 219.61939766255642 0.0
    vertex -16.2940952255126 219.82962913144533 -59.99999999999999
    vertex -16.913417161825446 219.61939766255642 -59.99999999999999
  endloop
endfacet
facet normal -0.32143946530316453 0.9469301294951047 0.0
  outer loop
    vertex -16.2940952255126 219.82962913144533 -59.99999999999999
    vertex -16.913417161825446 219.61939766255642 0.0
    vertex -16.2940952255126 219.82962913144533 0.0
  endloop
endfacet
facet normal -0.9469301294951042 0.3214394653031659 0.0
  outer loop
    vertex -19.619397662556427 216.91341716182546 0.0
    vertex -19.829629131445337 216.29409522551265 -59.99999999999999
    vertex -19.829629131445337 216.29409522551265 0.0
  endloop
endfacet
facet normal -0.9469301294951042 0.3214394653031659 0.0
  outer loop
    vertex -19.829629131445337 216.29409522551265 -59.99999999999999
    vertex -19.619397662556427 216.91341716182546 0.0
    vertex -19.619397662556427 216.91341716182546 -59.99999999999999
  endloop
endfacet
facet normal -0.8968727415326907 0.44228869021899675 0.0
  outer loop
    vertex -19.330127018922187 217.50000000000003 0.0
    vertex -19.619397662556427 216.91341716182546 -59.99999999999999
    vertex -19.619397662556427 216.91341716182546 0.0
  endloop
endfacet
facet normal -0.8968727415326907 0.44228869021899675 0.0
  outer loop
    vertex -19.619397662556427 216.91341716182546 -59.99999999999999
    vertex -19.330127018922187 217.50000000000003 0.0
    vertex -19.330127018922187 217.50000000000003 -59.99999999999999
  endloop
endfacet
endsolid DemoDruckerVorlage
